<svg viewBox="0 0 64 64" xmlns="http://www.w3.org/2000/svg" style="max-height: 80px;">
                        <defs>
                            <linearGradient id="grad5" x1="0%" y1="0%" x2="100%" y2="100%">
                                <stop offset="0%" style="stop-color:#a855f7"/>
                                <stop offset="50%" style="stop-color:#ec4899"/>
                                <stop offset="100%" style="stop-color:#f97316"/>
                            </linearGradient>
                        </defs>
                        <path fill-rule="evenodd" clip-rule="evenodd" d="M 12 3 C 5 3, 0 8, 0 15 L 0 40 C 0 47, 5 52, 12 52 L 15 52 L 11 61 C 11 61.5, 11.5 61.5, 12 61 L 23 52 L 40 52 C 50 52, 58 44, 58 34 L 58 21 C 58 11, 50 3, 40 3 Z M 18 17 C 18 13, 21 11, 25 11 L 33 11 C 41 11, 45 15, 45 23 L 45 31 C 45 39, 41 43, 33 43 L 25 43 C 21 43, 18 41, 18 37 Z" fill="url(#grad5)"/>
                    </svg>