<svg viewBox="0 0 100 110" xmlns="http://www.w3.org/2000/svg">
                        <defs>
                            <linearGradient id="grad3" x1="0%" y1="0%" x2="100%" y2="100%">
                                <stop offset="0%" style="stop-color:#a855f7"/>
                                <stop offset="50%" style="stop-color:#ec4899"/>
                                <stop offset="100%" style="stop-color:#f97316"/>
                            </linearGradient>
                        </defs>
                        <g transform="translate(2.5, 0)">
                            <path fill-rule="evenodd" clip-rule="evenodd" d="M 20 5 C 8 5, 0 13, 0 25 L 0 65 C 0 77, 8 85, 20 85 L 25 85 L 18 98 C 18 99, 19 99, 20 98 L 38 85 L 65 85 C 82 85, 95 72, 95 55 L 95 35 C 95 18, 82 5, 65 5 Z M 30 28 C 30 22, 35 18, 42 18 L 55 18 C 68 18, 75 25, 75 38 L 75 52 C 75 65, 68 72, 55 72 L 42 72 C 35 72, 30 68, 30 62 Z" fill="url(#grad3)"/>
                            <g transform="translate(32, 24) scale(1.75)">
                                <path d="M15 2H6a2 2 0 0 0-2 2v16a2 2 0 0 0 2 2h12a2 2 0 0 0 2-2V7Z" fill="none" stroke="url(#grad3)" stroke-width="2" stroke-linecap="round" stroke-linejoin="round"/>
                                <path d="M14 2v4a2 2 0 0 0 2 2h4" fill="none" stroke="url(#grad3)" stroke-width="2" stroke-linecap="round" stroke-linejoin="round"/>
                                <path d="M10 9H8" stroke="#a855f7" stroke-width="2" stroke-linecap="round"/>
                                <path d="M16 13H8" stroke="#ec4899" stroke-width="2" stroke-linecap="round"/>
                                <path d="M16 17H8" stroke="#f97316" stroke-width="2" stroke-linecap="round"/>
                            </g>
                        </g>
                    </svg>